<svg width="85" height="76" viewBox="0 0 85 76" fill="none" xmlns="http://www.w3.org/2000/svg">
<path d="M34.4687 55.2781L40.9364 51.02C40.9364 51.02 44.7093 48.5361 47.3453 52.5399C49.9812 56.5438 46.2084 59.0277 46.2084 59.0277L39.7407 63.2858C39.7407 63.2858 35.9678 65.7697 33.3318 61.7658C30.6959 57.762 34.4687 55.2781 34.4687 55.2781Z" fill="url(#paint0_linear_1177_3699)"/>
<path d="M41.9405 31.6588L11.9118 51.4286C11.9118 51.4286 7.90792 54.0646 10.5439 58.0684C13.1799 62.0722 17.1837 59.4363 17.1837 59.4363L47.2125 39.6665C47.2125 39.6665 51.2163 37.0305 48.5804 33.0266C45.9444 29.0228 41.9405 31.6588 41.9405 31.6588Z" fill="url(#paint1_linear_1177_3699)"/>
<path d="M52.5767 7.43854L11.4847 34.492C11.4847 34.492 6.00576 38.0991 8.64173 42.1029C11.2777 46.1068 16.7566 42.4996 16.7566 42.4996L57.8487 15.4462C57.8487 15.4462 63.3276 11.8391 60.6916 7.83526C58.0557 3.83142 52.5767 7.43854 52.5767 7.43854Z" fill="url(#paint2_linear_1177_3699)"/>
<path d="M37.9365 34.2949L31.9308 38.2488C32.2727 36.5889 30.9547 34.587 29.2948 34.245L35.3006 30.291C34.9586 31.951 36.2766 33.9529 37.9365 34.2949Z" fill="url(#paint3_linear_1177_3699)"/>
<path d="M60.7279 19.29L67.1956 15.0318C67.1956 15.0318 70.9685 12.5479 73.6045 16.5518C76.2404 20.5556 72.4676 23.0395 72.4676 23.0395L65.9999 27.2976C65.9999 27.2976 62.227 29.7815 59.591 25.7777C56.9551 21.7739 60.7279 19.29 60.7279 19.29Z" fill="url(#paint4_linear_1177_3699)"/>
<defs>
<linearGradient id="paint0_linear_1177_3699" x1="37.7026" y1="53.149" x2="42.9745" y2="61.1567" gradientUnits="userSpaceOnUse">
<stop stop-color="#EB00FF"/>
<stop offset="1" stop-color="#FFA800"/>
</linearGradient>
<linearGradient id="paint1_linear_1177_3699" x1="29.0278" y1="22.9422" x2="42.2077" y2="42.9614" gradientUnits="userSpaceOnUse">
<stop stop-color="#EB00FF"/>
<stop offset="1" stop-color="#FFA800"/>
</linearGradient>
<linearGradient id="paint2_linear_1177_3699" x1="29.0278" y1="22.9422" x2="42.2077" y2="42.9614" gradientUnits="userSpaceOnUse">
<stop stop-color="#EB00FF"/>
<stop offset="1" stop-color="#FFA800"/>
</linearGradient>
<linearGradient id="paint3_linear_1177_3699" x1="29.0278" y1="22.9422" x2="42.2077" y2="42.9614" gradientUnits="userSpaceOnUse">
<stop stop-color="#EB00FF"/>
<stop offset="1" stop-color="#FFA800"/>
</linearGradient>
<linearGradient id="paint4_linear_1177_3699" x1="63.9618" y1="17.1609" x2="69.2337" y2="25.1686" gradientUnits="userSpaceOnUse">
<stop stop-color="#EB00FF"/>
<stop offset="1" stop-color="#FFA800"/>
</linearGradient>
</defs>
</svg>
