<svg width="204" height="44" viewBox="0 0 204 44" fill="none" xmlns="http://www.w3.org/2000/svg">
<path d="M182 3C182 4.65685 180.657 6 179 6C177.343 6 176 4.65685 176 3C176 1.34315 177.343 0 179 0C180.657 0 182 1.34315 182 3Z" fill="url(#paint0_linear_1190_3787)"/>
<path d="M138 3C138 4.65685 136.657 6 135 6C133.343 6 132 4.65685 132 3C132 1.34315 133.343 0 135 0C136.657 0 138 1.34315 138 3Z" fill="url(#paint1_linear_1190_3787)"/>
<path d="M94 3C94 4.65685 92.6569 6 91 6C89.3431 6 88 4.65685 88 3C88 1.34315 89.3431 0 91 0C92.6569 0 94 1.34315 94 3Z" fill="url(#paint2_linear_1190_3787)"/>
<path d="M50 3C50 4.65685 48.6569 6 47 6C45.3431 6 44 4.65685 44 3C44 1.34315 45.3431 0 47 0C48.6569 0 50 1.34315 50 3Z" fill="url(#paint3_linear_1190_3787)"/>
<path d="M6 3C6 4.65685 4.65685 6 3 6C1.34315 6 0 4.65685 0 3C0 1.34315 1.34315 0 3 0C4.65685 0 6 1.34315 6 3Z" fill="url(#paint4_linear_1190_3787)"/>
<path d="M204 3C204 4.65685 202.657 6 201 6C199.343 6 198 4.65685 198 3C198 1.34315 199.343 0 201 0C202.657 0 204 1.34315 204 3Z" fill="url(#paint5_linear_1190_3787)"/>
<path d="M160 3C160 4.65685 158.657 6 157 6C155.343 6 154 4.65685 154 3C154 1.34315 155.343 0 157 0C158.657 0 160 1.34315 160 3Z" fill="url(#paint6_linear_1190_3787)"/>
<path d="M116 3C116 4.65685 114.657 6 113 6C111.343 6 110 4.65685 110 3C110 1.34315 111.343 0 113 0C114.657 0 116 1.34315 116 3Z" fill="url(#paint7_linear_1190_3787)"/>
<path d="M72 3C72 4.65685 70.6569 6 69 6C67.3431 6 66 4.65685 66 3C66 1.34315 67.3431 0 69 0C70.6569 0 72 1.34315 72 3Z" fill="url(#paint8_linear_1190_3787)"/>
<path d="M28 3C28 4.65685 26.6569 6 25 6C23.3431 6 22 4.65685 22 3C22 1.34315 23.3431 0 25 0C26.6569 0 28 1.34315 28 3Z" fill="url(#paint9_linear_1190_3787)"/>
<path d="M182 22C182 23.6569 180.657 25 179 25C177.343 25 176 23.6569 176 22C176 20.3431 177.343 19 179 19C180.657 19 182 20.3431 182 22Z" fill="url(#paint10_linear_1190_3787)"/>
<path d="M138 22C138 23.6569 136.657 25 135 25C133.343 25 132 23.6569 132 22C132 20.3431 133.343 19 135 19C136.657 19 138 20.3431 138 22Z" fill="url(#paint11_linear_1190_3787)"/>
<path d="M94 22C94 23.6569 92.6569 25 91 25C89.3431 25 88 23.6569 88 22C88 20.3431 89.3431 19 91 19C92.6569 19 94 20.3431 94 22Z" fill="url(#paint12_linear_1190_3787)"/>
<path d="M50 22C50 23.6569 48.6569 25 47 25C45.3431 25 44 23.6569 44 22C44 20.3431 45.3431 19 47 19C48.6569 19 50 20.3431 50 22Z" fill="url(#paint13_linear_1190_3787)"/>
<path d="M6 22C6 23.6569 4.65685 25 3 25C1.34315 25 0 23.6569 0 22C0 20.3431 1.34315 19 3 19C4.65685 19 6 20.3431 6 22Z" fill="url(#paint14_linear_1190_3787)"/>
<path d="M204 22C204 23.6569 202.657 25 201 25C199.343 25 198 23.6569 198 22C198 20.3431 199.343 19 201 19C202.657 19 204 20.3431 204 22Z" fill="url(#paint15_linear_1190_3787)"/>
<path d="M160 22C160 23.6569 158.657 25 157 25C155.343 25 154 23.6569 154 22C154 20.3431 155.343 19 157 19C158.657 19 160 20.3431 160 22Z" fill="url(#paint16_linear_1190_3787)"/>
<path d="M116 22C116 23.6569 114.657 25 113 25C111.343 25 110 23.6569 110 22C110 20.3431 111.343 19 113 19C114.657 19 116 20.3431 116 22Z" fill="url(#paint17_linear_1190_3787)"/>
<path d="M72 22C72 23.6569 70.6569 25 69 25C67.3431 25 66 23.6569 66 22C66 20.3431 67.3431 19 69 19C70.6569 19 72 20.3431 72 22Z" fill="url(#paint18_linear_1190_3787)"/>
<path d="M28 22C28 23.6569 26.6569 25 25 25C23.3431 25 22 23.6569 22 22C22 20.3431 23.3431 19 25 19C26.6569 19 28 20.3431 28 22Z" fill="url(#paint19_linear_1190_3787)"/>
<path d="M182 41C182 42.6569 180.657 44 179 44C177.343 44 176 42.6569 176 41C176 39.3431 177.343 38 179 38C180.657 38 182 39.3431 182 41Z" fill="url(#paint20_linear_1190_3787)"/>
<path d="M138 41C138 42.6569 136.657 44 135 44C133.343 44 132 42.6569 132 41C132 39.3431 133.343 38 135 38C136.657 38 138 39.3431 138 41Z" fill="url(#paint21_linear_1190_3787)"/>
<path d="M94 41C94 42.6569 92.6569 44 91 44C89.3431 44 88 42.6569 88 41C88 39.3431 89.3431 38 91 38C92.6569 38 94 39.3431 94 41Z" fill="url(#paint22_linear_1190_3787)"/>
<path d="M50 41C50 42.6569 48.6569 44 47 44C45.3431 44 44 42.6569 44 41C44 39.3431 45.3431 38 47 38C48.6569 38 50 39.3431 50 41Z" fill="url(#paint23_linear_1190_3787)"/>
<path d="M6 41C6 42.6569 4.65685 44 3 44C1.34315 44 0 42.6569 0 41C0 39.3431 1.34315 38 3 38C4.65685 38 6 39.3431 6 41Z" fill="url(#paint24_linear_1190_3787)"/>
<path d="M204 41C204 42.6569 202.657 44 201 44C199.343 44 198 42.6569 198 41C198 39.3431 199.343 38 201 38C202.657 38 204 39.3431 204 41Z" fill="url(#paint25_linear_1190_3787)"/>
<path d="M160 41C160 42.6569 158.657 44 157 44C155.343 44 154 42.6569 154 41C154 39.3431 155.343 38 157 38C158.657 38 160 39.3431 160 41Z" fill="url(#paint26_linear_1190_3787)"/>
<path d="M116 41C116 42.6569 114.657 44 113 44C111.343 44 110 42.6569 110 41C110 39.3431 111.343 38 113 38C114.657 38 116 39.3431 116 41Z" fill="url(#paint27_linear_1190_3787)"/>
<path d="M72 41C72 42.6569 70.6569 44 69 44C67.3431 44 66 42.6569 66 41C66 39.3431 67.3431 38 69 38C70.6569 38 72 39.3431 72 41Z" fill="url(#paint28_linear_1190_3787)"/>
<path d="M28 41C28 42.6569 26.6569 44 25 44C23.3431 44 22 42.6569 22 41C22 39.3431 23.3431 38 25 38C26.6569 38 28 39.3431 28 41Z" fill="url(#paint29_linear_1190_3787)"/>
<defs>
<linearGradient id="paint0_linear_1190_3787" x1="102" y1="0" x2="102" y2="44" gradientUnits="userSpaceOnUse">
<stop stop-color="#7E00E1"/>
<stop offset="1" stop-color="#446EB7"/>
</linearGradient>
<linearGradient id="paint1_linear_1190_3787" x1="102" y1="0" x2="102" y2="44" gradientUnits="userSpaceOnUse">
<stop stop-color="#7E00E1"/>
<stop offset="1" stop-color="#446EB7"/>
</linearGradient>
<linearGradient id="paint2_linear_1190_3787" x1="102" y1="0" x2="102" y2="44" gradientUnits="userSpaceOnUse">
<stop stop-color="#7E00E1"/>
<stop offset="1" stop-color="#446EB7"/>
</linearGradient>
<linearGradient id="paint3_linear_1190_3787" x1="102" y1="0" x2="102" y2="44" gradientUnits="userSpaceOnUse">
<stop stop-color="#7E00E1"/>
<stop offset="1" stop-color="#446EB7"/>
</linearGradient>
<linearGradient id="paint4_linear_1190_3787" x1="102" y1="0" x2="102" y2="44" gradientUnits="userSpaceOnUse">
<stop stop-color="#7E00E1"/>
<stop offset="1" stop-color="#446EB7"/>
</linearGradient>
<linearGradient id="paint5_linear_1190_3787" x1="102" y1="0" x2="102" y2="44" gradientUnits="userSpaceOnUse">
<stop stop-color="#7E00E1"/>
<stop offset="1" stop-color="#446EB7"/>
</linearGradient>
<linearGradient id="paint6_linear_1190_3787" x1="102" y1="0" x2="102" y2="44" gradientUnits="userSpaceOnUse">
<stop stop-color="#7E00E1"/>
<stop offset="1" stop-color="#446EB7"/>
</linearGradient>
<linearGradient id="paint7_linear_1190_3787" x1="102" y1="0" x2="102" y2="44" gradientUnits="userSpaceOnUse">
<stop stop-color="#7E00E1"/>
<stop offset="1" stop-color="#446EB7"/>
</linearGradient>
<linearGradient id="paint8_linear_1190_3787" x1="102" y1="0" x2="102" y2="44" gradientUnits="userSpaceOnUse">
<stop stop-color="#7E00E1"/>
<stop offset="1" stop-color="#446EB7"/>
</linearGradient>
<linearGradient id="paint9_linear_1190_3787" x1="102" y1="0" x2="102" y2="44" gradientUnits="userSpaceOnUse">
<stop stop-color="#7E00E1"/>
<stop offset="1" stop-color="#446EB7"/>
</linearGradient>
<linearGradient id="paint10_linear_1190_3787" x1="102" y1="0" x2="102" y2="44" gradientUnits="userSpaceOnUse">
<stop stop-color="#7E00E1"/>
<stop offset="1" stop-color="#446EB7"/>
</linearGradient>
<linearGradient id="paint11_linear_1190_3787" x1="102" y1="0" x2="102" y2="44" gradientUnits="userSpaceOnUse">
<stop stop-color="#7E00E1"/>
<stop offset="1" stop-color="#446EB7"/>
</linearGradient>
<linearGradient id="paint12_linear_1190_3787" x1="102" y1="0" x2="102" y2="44" gradientUnits="userSpaceOnUse">
<stop stop-color="#7E00E1"/>
<stop offset="1" stop-color="#446EB7"/>
</linearGradient>
<linearGradient id="paint13_linear_1190_3787" x1="102" y1="0" x2="102" y2="44" gradientUnits="userSpaceOnUse">
<stop stop-color="#7E00E1"/>
<stop offset="1" stop-color="#446EB7"/>
</linearGradient>
<linearGradient id="paint14_linear_1190_3787" x1="102" y1="0" x2="102" y2="44" gradientUnits="userSpaceOnUse">
<stop stop-color="#7E00E1"/>
<stop offset="1" stop-color="#446EB7"/>
</linearGradient>
<linearGradient id="paint15_linear_1190_3787" x1="102" y1="0" x2="102" y2="44" gradientUnits="userSpaceOnUse">
<stop stop-color="#7E00E1"/>
<stop offset="1" stop-color="#446EB7"/>
</linearGradient>
<linearGradient id="paint16_linear_1190_3787" x1="102" y1="0" x2="102" y2="44" gradientUnits="userSpaceOnUse">
<stop stop-color="#7E00E1"/>
<stop offset="1" stop-color="#446EB7"/>
</linearGradient>
<linearGradient id="paint17_linear_1190_3787" x1="102" y1="0" x2="102" y2="44" gradientUnits="userSpaceOnUse">
<stop stop-color="#7E00E1"/>
<stop offset="1" stop-color="#446EB7"/>
</linearGradient>
<linearGradient id="paint18_linear_1190_3787" x1="102" y1="0" x2="102" y2="44" gradientUnits="userSpaceOnUse">
<stop stop-color="#7E00E1"/>
<stop offset="1" stop-color="#446EB7"/>
</linearGradient>
<linearGradient id="paint19_linear_1190_3787" x1="102" y1="0" x2="102" y2="44" gradientUnits="userSpaceOnUse">
<stop stop-color="#7E00E1"/>
<stop offset="1" stop-color="#446EB7"/>
</linearGradient>
<linearGradient id="paint20_linear_1190_3787" x1="102" y1="0" x2="102" y2="44" gradientUnits="userSpaceOnUse">
<stop stop-color="#7E00E1"/>
<stop offset="1" stop-color="#446EB7"/>
</linearGradient>
<linearGradient id="paint21_linear_1190_3787" x1="102" y1="0" x2="102" y2="44" gradientUnits="userSpaceOnUse">
<stop stop-color="#7E00E1"/>
<stop offset="1" stop-color="#446EB7"/>
</linearGradient>
<linearGradient id="paint22_linear_1190_3787" x1="102" y1="0" x2="102" y2="44" gradientUnits="userSpaceOnUse">
<stop stop-color="#7E00E1"/>
<stop offset="1" stop-color="#446EB7"/>
</linearGradient>
<linearGradient id="paint23_linear_1190_3787" x1="102" y1="0" x2="102" y2="44" gradientUnits="userSpaceOnUse">
<stop stop-color="#7E00E1"/>
<stop offset="1" stop-color="#446EB7"/>
</linearGradient>
<linearGradient id="paint24_linear_1190_3787" x1="102" y1="0" x2="102" y2="44" gradientUnits="userSpaceOnUse">
<stop stop-color="#7E00E1"/>
<stop offset="1" stop-color="#446EB7"/>
</linearGradient>
<linearGradient id="paint25_linear_1190_3787" x1="102" y1="0" x2="102" y2="44" gradientUnits="userSpaceOnUse">
<stop stop-color="#7E00E1"/>
<stop offset="1" stop-color="#446EB7"/>
</linearGradient>
<linearGradient id="paint26_linear_1190_3787" x1="102" y1="0" x2="102" y2="44" gradientUnits="userSpaceOnUse">
<stop stop-color="#7E00E1"/>
<stop offset="1" stop-color="#446EB7"/>
</linearGradient>
<linearGradient id="paint27_linear_1190_3787" x1="102" y1="0" x2="102" y2="44" gradientUnits="userSpaceOnUse">
<stop stop-color="#7E00E1"/>
<stop offset="1" stop-color="#446EB7"/>
</linearGradient>
<linearGradient id="paint28_linear_1190_3787" x1="102" y1="0" x2="102" y2="44" gradientUnits="userSpaceOnUse">
<stop stop-color="#7E00E1"/>
<stop offset="1" stop-color="#446EB7"/>
</linearGradient>
<linearGradient id="paint29_linear_1190_3787" x1="102" y1="0" x2="102" y2="44" gradientUnits="userSpaceOnUse">
<stop stop-color="#7E00E1"/>
<stop offset="1" stop-color="#446EB7"/>
</linearGradient>
</defs>
</svg>
