<svg width="105" height="86" viewBox="0 0 105 86" fill="none" xmlns="http://www.w3.org/2000/svg">
<path d="M81.9802 78.3675V59.6599C81.1785 58.5909 79.9759 58.9918 79.6418 59.6599V78.3675C80.644 79.3697 81.3121 79.0356 81.9802 78.3675Z" fill="url(#paint0_linear_1154_3662)"/>
<path d="M71.6325 70.0159H90.3401C91.4091 69.2141 91.0082 68.0115 90.3401 67.6774H71.6325C70.6303 68.6796 70.9644 69.3478 71.6325 70.0159Z" fill="url(#paint1_linear_1154_3662)"/>
<path d="M100.49 85.6837V76.3299C100.089 75.7954 99.488 75.9959 99.321 76.3299V85.6837C99.8221 86.1848 100.156 86.0178 100.49 85.6837Z" fill="url(#paint2_linear_1154_3662)"/>
<path d="M95.3163 81.5079H104.67C105.205 81.1071 105.004 80.5057 104.67 80.3387H95.3163C94.8152 80.8398 94.9822 81.1739 95.3163 81.5079Z" fill="url(#paint3_linear_1154_3662)"/>
<path d="M11.3843 21.6205V10.3959C10.4348 9.75452 9.01065 9.99505 8.61505 10.3959V21.6205C9.80186 22.2218 10.5931 22.0214 11.3843 21.6205Z" fill="url(#paint4_linear_1154_3662)"/>
<path d="M4.37951 17.2784H15.6041C16.2455 16.329 16.0049 14.9048 15.6041 14.5092H4.37951C3.77819 15.696 3.97863 16.4872 4.37951 17.2784Z" fill="url(#paint5_linear_1154_3662)"/>
<rect x="4.94975" y="57.3848" width="19" height="19" transform="rotate(-45 4.94975 57.3848)" stroke="url(#paint6_linear_1154_3662)" stroke-width="7"/>
<rect x="33.7782" y="31.8198" width="34" height="34" transform="rotate(-45 33.7782 31.8198)" stroke="url(#paint7_linear_1154_3662)" stroke-width="11"/>
<defs>
<linearGradient id="paint0_linear_1154_3662" x1="80.811" y1="59" x2="80.811" y2="79" gradientUnits="userSpaceOnUse">
<stop stop-color="#EB00FF"/>
<stop offset="1" stop-color="#FFA800"/>
</linearGradient>
<linearGradient id="paint1_linear_1154_3662" x1="91" y1="68.8467" x2="71" y2="68.8467" gradientUnits="userSpaceOnUse">
<stop stop-color="#EB00FF"/>
<stop offset="1" stop-color="#FFA800"/>
</linearGradient>
<linearGradient id="paint2_linear_1154_3662" x1="99.9056" y1="76" x2="99.9056" y2="86" gradientUnits="userSpaceOnUse">
<stop stop-color="#EB00FF"/>
<stop offset="1" stop-color="#FFA800"/>
</linearGradient>
<linearGradient id="paint3_linear_1154_3662" x1="105" y1="80.9233" x2="95" y2="80.9233" gradientUnits="userSpaceOnUse">
<stop stop-color="#EB00FF"/>
<stop offset="1" stop-color="#FFA800"/>
</linearGradient>
<linearGradient id="paint4_linear_1154_3662" x1="9.99966" y1="10" x2="9.99966" y2="22" gradientUnits="userSpaceOnUse">
<stop stop-color="#7E00E1"/>
<stop offset="1" stop-color="#446EB7"/>
</linearGradient>
<linearGradient id="paint5_linear_1154_3662" x1="16" y1="15.8938" x2="4" y2="15.8938" gradientUnits="userSpaceOnUse">
<stop stop-color="#7E00E1"/>
<stop offset="1" stop-color="#446EB7"/>
</linearGradient>
<linearGradient id="paint6_linear_1154_3662" x1="13" y1="57.3848" x2="13" y2="83.3848" gradientUnits="userSpaceOnUse">
<stop stop-color="#6E16FF"/>
<stop offset="1" stop-color="#EA7C3E"/>
</linearGradient>
<linearGradient id="paint7_linear_1154_3662" x1="48.5" y1="31.8198" x2="48.5" y2="76.8198" gradientUnits="userSpaceOnUse">
<stop stop-color="#EB00FF"/>
<stop offset="1" stop-color="#FFA800"/>
</linearGradient>
</defs>
</svg>
