<svg width="86" height="67" viewBox="0 0 86 67" fill="none" xmlns="http://www.w3.org/2000/svg">
<path d="M31.5173 51H39.2609C39.2609 51 43.778 51 43.778 55.7937C43.778 60.5873 39.2609 60.5873 39.2609 60.5873H31.5173C31.5173 60.5873 27.0002 60.5873 27.0002 55.7937C27.0002 51 31.5173 51 31.5173 51Z" fill="url(#paint0_linear_936_2093)"/>
<path d="M50.746 35.381H14.7937C14.7937 35.381 10 35.381 10 40.1746C10 44.9683 14.7937 44.9683 14.7937 44.9683H50.746C50.746 44.9683 55.5397 44.9683 55.5397 40.1746C55.5397 35.381 50.746 35.381 50.746 35.381Z" fill="url(#paint1_linear_936_2093)"/>
<path d="M72.9482 21H23.7502C23.7502 21 17.1905 21 17.1905 25.7937C17.1905 30.5873 23.7502 30.5873 23.7502 30.5873H72.9482C72.9482 30.5873 79.5079 30.5873 79.5079 25.7937C79.5079 21 72.9482 21 72.9482 21Z" fill="url(#paint2_linear_936_2093)"/>
<path d="M45.9522 35.381H38.7617C39.9601 34.1825 39.9601 31.7857 38.7617 30.5873H45.9522C44.7537 31.7857 44.7537 34.1825 45.9522 35.381Z" fill="url(#paint3_linear_936_2093)"/>
<path d="M73.2394 35.381H80.983C80.983 35.381 85.5001 35.381 85.5001 40.1746C85.5001 44.9683 80.983 44.9683 80.983 44.9683H73.2394C73.2394 44.9683 68.7223 44.9683 68.7223 40.1746C68.7223 35.381 73.2394 35.381 73.2394 35.381Z" fill="url(#paint4_linear_936_2093)"/>
<path d="M64.4902 9.68374V0.32994C64.0894 -0.204563 63.488 -0.00412431 63.321 0.32994V9.68374C63.8221 10.1848 64.1562 10.0178 64.4902 9.68374Z" fill="url(#paint5_linear_936_2093)"/>
<path d="M59.3163 5.50793L68.6701 5.50793C69.2046 5.10706 69.0041 4.50574 68.6701 4.33871L59.3163 4.33871C58.8152 4.83981 58.9822 5.17387 59.3163 5.50793Z" fill="url(#paint6_linear_936_2093)"/>
<path d="M5.49023 55.6837V46.3299C5.08936 45.7954 4.48804 45.9959 4.32101 46.3299V55.6837C4.82211 56.1848 5.15617 56.0178 5.49023 55.6837Z" fill="url(#paint7_linear_936_2093)"/>
<path d="M0.316257 51.5079H9.67006C10.2046 51.1071 10.0041 50.5057 9.67006 50.3387H0.316257C-0.184839 50.8398 -0.017807 51.1739 0.316257 51.5079Z" fill="url(#paint8_linear_936_2093)"/>
<path d="M64.9802 66.3675V47.6599C64.1785 46.5909 62.9759 46.9918 62.6418 47.6599V66.3675C63.644 67.3697 64.3121 67.0356 64.9802 66.3675Z" fill="url(#paint9_linear_936_2093)"/>
<path d="M54.6325 58.0159H73.3401C74.4091 57.2141 74.0082 56.0115 73.3401 55.6774H54.6325C53.6303 56.6796 53.9644 57.3478 54.6325 58.0159Z" fill="url(#paint10_linear_936_2093)"/>
<defs>
<linearGradient id="paint0_linear_936_2093" x1="35.3891" y1="51" x2="35.3891" y2="60.5873" gradientUnits="userSpaceOnUse">
<stop stop-color="#6E16FF"/>
<stop offset="1" stop-color="#EA7C3E"/>
</linearGradient>
<linearGradient id="paint1_linear_936_2093" x1="44.754" y1="21" x2="44.754" y2="44.9683" gradientUnits="userSpaceOnUse">
<stop stop-color="#6E16FF"/>
<stop offset="1" stop-color="#EA7C3E"/>
</linearGradient>
<linearGradient id="paint2_linear_936_2093" x1="44.754" y1="21" x2="44.754" y2="44.9683" gradientUnits="userSpaceOnUse">
<stop stop-color="#6E16FF"/>
<stop offset="1" stop-color="#EA7C3E"/>
</linearGradient>
<linearGradient id="paint3_linear_936_2093" x1="44.754" y1="21" x2="44.754" y2="44.9683" gradientUnits="userSpaceOnUse">
<stop stop-color="#6E16FF"/>
<stop offset="1" stop-color="#EA7C3E"/>
</linearGradient>
<linearGradient id="paint4_linear_936_2093" x1="77.1112" y1="35.381" x2="77.1112" y2="44.9683" gradientUnits="userSpaceOnUse">
<stop stop-color="#6E16FF"/>
<stop offset="1" stop-color="#EA7C3E"/>
</linearGradient>
<linearGradient id="paint5_linear_936_2093" x1="63.9056" y1="0" x2="63.9056" y2="10" gradientUnits="userSpaceOnUse">
<stop stop-color="#6E16FF"/>
<stop offset="1" stop-color="#EA7C3E"/>
</linearGradient>
<linearGradient id="paint6_linear_936_2093" x1="69" y1="4.92332" x2="59" y2="4.92332" gradientUnits="userSpaceOnUse">
<stop stop-color="#6E16FF"/>
<stop offset="1" stop-color="#EA7C3E"/>
</linearGradient>
<linearGradient id="paint7_linear_936_2093" x1="4.90562" y1="46" x2="4.90562" y2="56" gradientUnits="userSpaceOnUse">
<stop stop-color="#6E16FF"/>
<stop offset="1" stop-color="#EA7C3E"/>
</linearGradient>
<linearGradient id="paint8_linear_936_2093" x1="10" y1="50.9233" x2="0" y2="50.9233" gradientUnits="userSpaceOnUse">
<stop stop-color="#6E16FF"/>
<stop offset="1" stop-color="#EA7C3E"/>
</linearGradient>
<linearGradient id="paint9_linear_936_2093" x1="63.811" y1="47" x2="63.811" y2="67" gradientUnits="userSpaceOnUse">
<stop stop-color="#6E16FF"/>
<stop offset="1" stop-color="#EA7C3E"/>
</linearGradient>
<linearGradient id="paint10_linear_936_2093" x1="74" y1="56.8467" x2="54" y2="56.8467" gradientUnits="userSpaceOnUse">
<stop stop-color="#6E16FF"/>
<stop offset="1" stop-color="#EA7C3E"/>
</linearGradient>
</defs>
</svg>
